<?xml version="1.0" standalone="no"?>
<!DOCTYPE svg PUBLIC "-//W3C//DTD SVG 20010904//EN"
 "http://www.w3.org/TR/2001/REC-SVG-20010904/DTD/svg10.dtd">
<svg version="1.0" xmlns="http://www.w3.org/2000/svg"
 width="512.000000pt" height="512.000000pt" viewBox="0 0 512.000000 512.000000"
 preserveAspectRatio="xMidYMid meet">
<metadata>
Created by potrace 1.14, written by Peter Selinger 2001-2017
</metadata>
<g transform="translate(0.000000,512.000000) scale(0.100000,-0.100000)"
fill="#000000" stroke="none">
<path d="M2365 4793 c-230 -27 -498 -91 -622 -148 -17 -8 -33 -15 -37 -15 -3
0 -52 -22 -109 -49 -570 -269 -1012 -788 -1187 -1395 -65 -223 -85 -374 -85
-621 1 -179 7 -272 29 -391 83 -460 289 -856 616 -1185 170 -171 341 -302 516
-394 38 -20 76 -40 84 -45 100 -60 441 -171 600 -195 25 -4 54 -9 65 -11 89
-19 411 -25 561 -11 158 14 391 69 549 129 436 167 797 450 1068 840 26 38 47
70 47 73 0 2 12 21 26 42 38 56 137 264 177 373 57 154 108 372 125 535 9 88
9 378 0 466 -41 414 -212 830 -476 1164 -70 89 -288 307 -367 367 -82 62 -242
168 -254 168 -5 0 -11 4 -13 8 -9 22 -416 202 -457 202 -6 0 -31 7 -57 16 -25
9 -54 17 -63 19 -120 26 -165 34 -211 40 -30 4 -64 9 -75 12 -25 6 -409 11
-450 6z m368 -1289 c193 -37 358 -123 499 -262 104 -101 166 -196 222 -335 47
-119 64 -220 61 -369 -5 -252 -90 -457 -265 -641 -319 -337 -836 -392 -1224
-132 -195 130 -334 326 -398 563 -31 114 -31 343 0 462 13 47 27 94 31 105 67
152 117 230 212 330 142 149 330 247 554 287 50 10 243 4 308 -8z"/>
</g>
</svg>
